HIERARCHY
ROOT Hips
{
	OFFSET 0 0 0
	CHANNELS 6 Xposition Yposition Zposition Zrotation Yrotation Xrotation
	JOINT LeftThigh
	{
		OFFSET 8.209213 0 -5.776854
		CHANNELS 3 Zrotation Yrotation Xrotation
		JOINT LeftLeg
		{
			OFFSET 0 0 -41.350112
			CHANNELS 3 Zrotation Yrotation Xrotation
			JOINT LeftFoot
			{
				OFFSET 0 0 -38.420225
				CHANNELS 3 Zrotation Yrotation Xrotation
				End Site
				{
					OFFSET 0 -13.011281 -4.889596
				}
			}
		}
	}
	JOINT RightThigh
	{
		OFFSET -8.209213 0 -5.776854
		CHANNELS 3 Zrotation Yrotation Xrotation
		JOINT RightLeg
		{
			OFFSET 0 0 -41.350112
			CHANNELS 3 Zrotation Yrotation Xrotation
			JOINT RightFoot
			{
				OFFSET 0 0 -38.420225
				CHANNELS 3 Zrotation Yrotation Xrotation
				End Site
				{
					OFFSET 0 -13.011281 -4.889596
				}
			}
		}
	}
	JOINT SpineLow
	{
		OFFSET 0 0 4.606742
		CHANNELS 3 Zrotation Yrotation Xrotation
		JOINT SpineMid
		{
			OFFSET 0 0 12.592067
			CHANNELS 3 Zrotation Yrotation Xrotation
			JOINT Chest
			{
				OFFSET 0 0 12.592067
				CHANNELS 3 Zrotation Yrotation Xrotation
				JOINT LeftShoulder
				{
					OFFSET 7.370787 1.382022 9.213483
					CHANNELS 3 Zrotation Yrotation Xrotation
					JOINT LeftArm
					{
						OFFSET 8.937079 0 4.146067
						CHANNELS 3 Zrotation Yrotation Xrotation
						JOINT LeftForearm
						{
							OFFSET 0 0 25.158337
							CHANNELS 3 Zrotation Yrotation Xrotation
							JOINT LeftHand
							{
								OFFSET 0 0 24.597236
								CHANNELS 3 Zrotation Yrotation Xrotation
							}
						}
					}
				}
				JOINT RightShoulder
				{
					OFFSET -7.370787 1.382022 9.213483
					CHANNELS 3 Zrotation Yrotation Xrotation
					JOINT RightArm
					{
						OFFSET -8.937079 0 4.146067
						CHANNELS 3 Zrotation Yrotation Xrotation
						JOINT RightForearm
						{
							OFFSET 0 0 -25.158337
							CHANNELS 3 Zrotation Yrotation Xrotation
							JOINT RightHand
							{
								OFFSET 0 0 -24.597236
								CHANNELS 3 Zrotation Yrotation Xrotation
							}
						}
					}
				}
				JOINT Neck
				{
					OFFSET 0 0 14.741573
					CHANNELS 3 Zrotation Yrotation Xrotation
					JOINT Head
					{
						OFFSET 0 0 11.05618
						CHANNELS 3 Zrotation Yrotation Xrotation
						End Site
						{
							OFFSET 0 0 7.325843
						}
					}
				}
			}
		}
	}
}
MOTION
Frames: 16
Frame Time: 0.01
-13.318779 91.0760840987188 -0.495384 179.209085 27.311236 83.372469 -6.148832 -10.677638 5.159886 -2.697492 2.053061 -0.0625 1.818318 -0.856829 0.077262 6.470845 10.726072 7.140004 -4.6038 -0.158904 1.446367 1.695412 0.233315 -0.354434 0.265884 0.14262 -0.339025 0.724759 0.393549 -0.925122 0.724759 0.393549 -0.925122 -7.797867 6.542341 24.610246 101.197271 40.942333 153.802775 -24.550234 9.020938 49.521442 78.40059 -9.829852 -7.930446 4.912083 -16.150852 18.83079 58.301898 49.044901 -10.332951 -22.59945 13.188775 -45.930857 118.448414 -25.912799 -9.567341 -0.497236 0.768311 3.537495 -0.377384 0.573379 2.653709
-13.320006 91.0766295024998 -0.497401 179.206305 27.331576 83.379626 -6.159766 -10.67232 5.147256 -2.666715 2.05453 -0.056392 1.82135 -0.861866 0.077471 6.495678 10.724741 7.123378 -4.640892 -0.15048 1.461465 1.730046 0.229663 -0.360243 0.270869 0.142705 -0.345244 0.738347 0.393921 -0.942089 0.738347 0.393921 -0.942089 -7.84659 6.518024 24.631741 101.17711 40.931821 153.802502 -24.553595 9.019994 49.5141 78.376901 -9.835062 -7.885199 4.89235 -16.166184 18.83781 58.299959 49.040271 -10.347524 -22.548616 13.195319 -45.904711 118.487774 -25.905728 -9.575559 -0.184771 0.74016 3.48072 -0.142798 0.554089 2.610727
-13.303456 91.0742138946838 -0.528584 179.192517 27.363815 83.385502 -6.141536 -10.661653 5.135169 -2.649162 2.043795 -0.062599 1.799705 -0.85108 0.084572 6.471082 10.748981 7.142073 -4.579869 -0.171592 1.421088 1.707072 0.241954 -0.348365 0.256476 0.143284 -0.341664 0.699018 0.395261 -0.932384 0.699018 0.395261 -0.932384 -7.772506 6.522028 24.574381 101.274009 40.987533 153.834453 -24.473261 9.034663 49.487422 78.454891 -9.774753 -7.874865 4.968626 -16.18081 18.792133 58.468745 48.982866 -10.254433 -22.449353 13.130482 -45.861193 118.39408 -26.24307 -9.542305 0.388984 0.707037 3.344487 0.287875 0.532425 2.507884
-13.304727 91.0752087480279 -0.538557 179.189788 27.394211 83.394593 -6.157859 -10.653226 5.13187 -2.602387 2.040293 -0.064546 1.800295 -0.854849 0.083795 6.456685 10.754532 7.121568 -4.588617 -0.161794 1.430093 1.748256 0.237319 -0.358689 0.254472 0.137433 -0.339538 0.693636 0.37922 -0.926644 0.693636 0.37922 -0.926644 -7.769633 6.496411 24.523697 101.241521 40.976127 153.840624 -24.439787 9.028632 49.470454 78.433744 -9.789968 -7.843336 4.966134 -16.16913 18.753264 58.520806 48.995979 -10.251491 -22.381264 13.139954 -45.810886 118.448705 -26.212802 -9.553069 1.152972 0.684488 3.165766 0.8612 0.519357 2.373015
-13.291762 91.0719939505564 -0.584561 179.178721 27.431462 83.392806 -6.102647 -10.652185 5.129282 -2.585277 2.030235 -0.080279 1.735573 -0.843041 0.098029 6.352038 10.787559 7.166992 -4.446788 -0.176728 1.337834 1.720851 0.23377 -0.336708 0.238499 0.131692 -0.328909 0.650114 0.363197 -0.89774 0.650114 0.363197 -0.89774 -7.658611 6.469383 24.395528 101.260378 40.994971 153.857524 -24.349797 9.055887 49.433199 78.509227 -9.757572 -7.807183 4.983173 -16.156115 18.693348 58.655757 48.96692 -10.166269 -22.188375 13.079884 -45.811487 118.393514 -26.419314 -9.529864 2.253541 0.629461 2.88749 1.687209 0.482763 2.16331
-13.298068 91.0726651534967 -0.601503 179.175956 27.487295 83.395392 -6.101014 -10.647468 5.142319 -2.539022 2.027638 -0.090036 1.736586 -0.843097 0.096504 6.338306 10.801249 7.154965 -4.438557 -0.173815 1.335377 1.762855 0.227626 -0.345153 0.231407 0.116119 -0.321342 0.630977 0.320464 -0.877242 0.630977 0.320464 -0.877242 -7.631959 6.451236 24.292562 101.222361 40.963487 153.861432 -24.309016 9.0671 49.414051 78.49587 -9.779137 -7.76892 4.972674 -16.112941 18.643343 58.753463 48.998265 -10.159923 -22.053956 13.128108 -45.74762 118.449867 -26.354829 -9.540195 3.61306 0.549811 2.541822 2.707543 0.427412 1.903181
-13.293206 91.069162171258 -0.642159 179.167343 27.546718 83.383204 -5.994242 -10.661526 5.140137 -2.590606 2.033686 -0.093805 1.701986 -0.83782 0.10173 6.234949 10.836899 7.212162 -4.251095 -0.194762 1.218965 1.706942 0.226085 -0.310936 0.216809 0.104841 -0.323846 0.591212 0.289466 -0.884258 0.591212 0.289466 -0.884258 -7.528523 6.413151 24.235107 101.259276 40.95304 153.885323 -24.238381 9.109093 49.382527 78.616455 -9.754706 -7.700461 4.959152 -16.101874 18.675044 58.777213 48.989681 -10.156519 -21.860872 13.192262 -45.776956 118.493062 -26.305022 -9.539983 5.275319 0.38596 2.176407 3.95516 0.308289 1.629111
-13.295249 91.0675157156317 -0.66679 179.151589 27.654338 83.390227 -5.941809 -10.657916 5.144157 -2.536526 2.037042 -0.10557 1.704441 -0.835996 0.100045 6.237811 10.861162 7.188392 -4.202671 -0.192266 1.208013 1.745913 0.22195 -0.32204 0.218145 0.088461 -0.3355 0.59504 0.244817 -0.916252 0.59504 0.244817 -0.916252 -7.544907 6.390179 24.217453 101.20806 40.875442 153.866419 -24.203362 9.114159 49.362769 78.619169 -9.785287 -7.6705 4.905555 -16.078 18.724205 58.759216 49.019755 -10.212237 -21.673247 13.237488 -45.751206 118.507246 -26.271882 -9.528936 7.145679 0.192919 1.789435 5.358744 0.165642 1.340036
-13.293182 91.0599787318124 -0.699383 179.118205 27.735331 83.377572 -5.800924 -10.662443 5.127601 -2.602583 2.051882 -0.105817 1.684947 -0.83491 0.102925 6.140298 10.923325 7.221165 -3.989142 -0.219119 1.098823 1.689434 0.227713 -0.28787 0.201642 0.079061 -0.340919 0.550042 0.218942 -0.931205 0.550042 0.218942 -0.931205 -7.552369 6.377818 24.196841 101.360193 40.901364 153.902483 -24.137231 9.147634 49.316139 78.743397 -9.762231 -7.6244 4.965909 -16.083281 18.723778 58.631255 48.98885 -10.250021 -21.498225 13.279791 -45.846424 118.480499 -26.247374 -9.520501 9.277752 -0.069299 1.360111 6.958508 -0.031333 1.021414
-13.302019 91.0565066179788 -0.721788 179.081484 27.84422 83.379135 -5.757908 -10.636908 5.127209 -2.525527 2.055461 -0.115846 1.681597 -0.840412 0.102148 6.12098 10.973769 7.188816 -3.917831 -0.215769 1.083054 1.731939 0.222044 -0.296503 0.202986 0.067932 -0.344935 0.553862 0.188575 -0.942271 0.553862 0.188575 -0.94227 -7.597379 6.333665 24.119997 101.255383 40.814662 153.847283 -24.111154 9.142957 49.258266 78.762675 -9.798286 -7.607395 4.960346 -16.082443 18.700155 58.45699 49.029073 -10.351316 -21.395205 13.256572 -45.906543 118.443458 -26.232133 -9.548316 11.516544 -0.322959 0.880256 8.637871 -0.225724 0.666559
-13.305247 91.0495559321142 -0.756188 179.028079 27.963103 83.382027 -5.603391 -10.607886 5.091193 -2.540167 2.048777 -0.123232 1.659966 -0.835129 0.108196 6.096064 11.054008 7.17034 -3.785711 -0.239416 1.031086 1.700974 0.226928 -0.276954 0.178347 0.055989 -0.328454 0.486725 0.155457 -0.89738 0.486725 0.155457 -0.89738 -7.754295 6.393238 24.006363 101.566191 40.93017 153.936962 -24.117805 9.118268 49.101371 78.874648 -9.80532 -7.586459 5.201982 -16.042358 18.521039 58.472039 49.00181 -10.335861 -21.511936 13.298013 -45.987125 118.414086 -26.214916 -9.609506 13.611829 -0.465446 0.48066 10.209188 -0.338576 0.371081
-13.311155 91.0430282813173 -0.782586 178.959278 28.085351 83.390091 -5.55619 -10.549641 5.07053 -2.444431 2.042706 -0.129049 1.656688 -0.834927 0.106028 6.085787 11.138924 7.116102 -3.726617 -0.243108 1.021173 1.749525 0.224679 -0.292236 0.176731 0.04751 -0.311161 0.482457 0.132134 -0.850176 0.482457 0.132134 -0.850176 -7.765837 6.340476 23.748121 101.352914 40.838758 153.863849 -24.107305 9.059311 48.956026 78.918576 -9.858918 -7.568541 5.327143 -16.01268 18.328995 58.226917 49.01769 -10.428304 -21.542392 13.232313 -46.127052 118.406137 -26.203646 -9.689116 15.831099 -0.674666 -0.053097 11.873129 -0.50778 -0.022356
-13.327403 91.034336699512 -0.779868 178.890295 28.279086 83.409312 -5.36192 -10.514822 5.01707 -2.398643 2.035862 -0.131597 1.61434 -0.825176 0.108684 6.240761 11.208651 7.033546 -3.70416 -0.256754 1.019 1.729345 0.229261 -0.272934 0.167439 0.028144 -0.273085 0.457354 0.078818 -0.74625 0.457354 0.078818 -0.746251 -8.076002 6.476696 23.515657 101.540108 40.956853 153.929155 -24.276293 8.914152 48.64954 79.010329 -9.919839 -7.537252 5.699195 -15.913769 17.963962 58.238518 48.994305 -10.416051 -21.773615 13.2579 -46.15125 118.416832 -26.2022 -9.779515 17.88538 -0.795127 -0.55259 13.413115 -0.613148 -0.391552
-13.336403 91.0240847843271 -0.811133 178.797661 28.393232 83.404822 -5.336117 -10.43871 4.991296 -2.28928 2.036358 -0.124713 1.614358 -0.825489 0.107367 6.251706 11.31849 6.995304 -3.68195 -0.263621 0.999823 1.777306 0.223763 -0.284569 0.16863 0.021803 -0.235733 0.460716 0.061238 -0.644197 0.460716 0.061238 -0.644197 -8.020518 6.413969 23.105803 101.149787 40.860858 153.848995 -24.293587 8.742279 48.408401 79.060466 -10.004148 -7.515865 5.916777 -15.863608 17.646605 57.908348 48.981912 -10.52245 -21.786164 13.180348 -46.294363 118.416527 -26.216317 -9.860426 19.542277 -0.901062 -0.937534 14.655066 -0.706652 -0.675124
-13.378267 91.0156499248419 -0.746761 178.731849 28.569288 83.413222 -5.210199 -10.398237 4.966307 -2.168072 2.02546 -0.132251 1.566216 -0.815149 0.114433 6.50934 11.368935 6.890071 -3.735805 -0.273701 1.026917 1.747703 0.22394 -0.257692 0.184614 -0.004018 -0.192034 0.504652 -0.009516 -0.524932 0.504652 -0.009516 -0.524932 -7.98578 6.446529 22.677983 100.630532 40.736573 153.787263 -24.61162 8.462691 48.040983 79.157823 -10.081341 -7.448889 6.211932 -15.694234 17.302775 57.568372 48.956703 -10.654324 -21.844113 13.113306 -46.375069 118.412719 -26.249143 -9.940613 20.838554 -0.882431 -1.216159 15.626925 -0.704293 -0.883209
-13.384585 91.0041095928998 -0.771764 178.630782 28.659546 83.361447 -5.201529 -10.310056 4.974283 -2.083978 2.029783 -0.114038 1.568015 -0.815455 0.117501 6.557715 11.475101 6.907388 -3.749978 -0.282405 1.010633 1.783331 0.220758 -0.270817 0.206065 -0.002651 -0.148039 0.563273 -0.005984 -0.404669 0.563273 -0.005984 -0.40467 -7.94918 6.36688 22.285419 100.169197 40.643546 153.752469 -24.662922 8.176811 47.784936 79.174599 -10.161686 -7.439794 6.425147 -15.623054 17.025093 57.094075 48.929656 -10.834874 -21.859579 12.985634 -46.495649 118.436272 -26.292864 -10.021793 21.740529 -0.887022 -1.422757 16.303115 -0.716997 -1.037026
